# xmcd
#
# Track frame offsets: 
#        150
#        9135
#        19475
#        32142
#        44457
#        56637
#        68112
#        75300
#        85537
#        98315
#        105762
#        114527
#        126742
#        138567
#        148192
#        159832
#        175727
#        183880
#
# Disc length: 2598 seconds
#
# Revision: 1
# Processed by: cddbd v1.5.2PL0 Copyright (c) Steve Scherf et al.
# Submitted via: ExactAudioCopy v1.0b3
#
DISCID=dc0a2412
DTITLE=Ralph Stanley and The Clinch Mountain Boys - Ralph Stanley and 
DTITLE=The Clinch Mountain Boys 1971-1973 CD1
DYEAR=1995
DGENRE=Bluegrass
TTITLE0=I Am The Man, Thomas
TTITLE1=Take Your Shoes Off, Moses
TTITLE2=Death Is Only A Dream
TTITLE3=Brand New Tennessee Waltz
TTITLE4=Two Coats
TTITLE5=Bright Morning Star
TTITLE6=Come On Little Children
TTITLE7=The Prettiest Flowers Will Be Blooming
TTITLE8=Cry From The Cross
TTITLE9=Step Out In The Sunshine
TTITLE10=You're Drifting On
TTITLE11=Gloryland
TTITLE12=Stairway To Heaven
TTITLE13=Will He Wait A Little Longer
TTITLE14=Sinner Man
TTITLE15=Shotgun Slade
TTITLE16=Old-Time Pickin'
TTITLE17=I'll Remember You Love In My Prayers
EXTD=YEAR: 1995 ID3G: 89
EXTT0=
EXTT1=
EXTT2=
EXTT3=
EXTT4=
EXTT5=
EXTT6=
EXTT7=
EXTT8=
EXTT9=
EXTT10=
EXTT11=
EXTT12=
EXTT13=
EXTT14=
EXTT15=
EXTT16=
EXTT17=
PLAYORDER=
